<?xml version="1.0" encoding="utf-8"?>
<!-- Generator: Adobe Illustrator 27.0.0, SVG Export Plug-In . SVG Version: 6.00 Build 0)  -->
<svg version="1.1" id="Layer_1" xmlns="http://www.w3.org/2000/svg" xmlns:xlink="http://www.w3.org/1999/xlink" x="0px" y="0px"
	 viewBox="0 0 168 48" style="enable-background:new 0 0 168 48;" xml:space="preserve">
<style type="text/css">
	.st0{fill:#343433;}
</style>
<path class="st0" d="M8.64,0.17c-3.43,1.44-7.21,5.5-8.4,10.6c-1.51,6.46,4.77,9.19,5.29,8.3c0.61-1.05-1.13-1.41-1.48-4.76
	C3.58,9.97,5.59,5.13,8.12,3.01c0.47-0.39,0.45,0.15,0.45,1.17c0,1.82-0.1,18.11-0.1,21.51c0,4.6-0.19,6.05-0.53,7.49
	C7.6,34.64,7.04,35.62,7.46,36c0.47,0.42,2.48-0.58,3.64-2.21c1.4-1.95,1.88-4.29,1.97-6.83c0.11-3.06,0.1-7.92,0.11-10.69
	c0-2.54,0.04-9.98-0.04-14.46C13.12,0.72,10.07-0.44,8.64,0.17"/>
<path class="st0" d="M130.59,21.7c-0.11,2.39-0.64,4.26-1.3,5.58c-1.27,2.55-3.91,3.35-5.03-0.32c-0.61-2-0.64-5.34-0.2-8.13
	c0.45-2.84,1.7-4.99,3.76-4.8C129.86,14.22,130.81,16.84,130.59,21.7L130.59,21.7z M96.22,36.54c-0.03,3.97-0.65,7.46-1.99,8.47
	c-1.9,1.44-4.46,0.36-3.93-2.54c0.47-2.57,2.68-5.19,5.93-8.39C96.22,34.08,96.23,34.81,96.22,36.54z M95.7,21.68
	c-0.12,2.18-0.68,4.37-1.3,5.6c-1.27,2.55-3.93,3.35-5.03-0.32c-0.75-2.51-0.57-5.76-0.2-7.81c0.48-2.66,1.66-5.12,3.76-5.12
	C94.98,14.02,95.99,16.27,95.7,21.68z M75.79,21.64c-0.12,2.31-0.58,4.24-1.3,5.64c-1.31,2.54-3.89,3.34-5.03-0.32
	c-0.82-2.64-0.54-6.24-0.2-8.19c0.51-2.89,1.78-4.94,3.76-4.74C75.06,14.22,76.05,16.84,75.79,21.64L75.79,21.64z M167.04,24.34
	c-0.5,0-0.72,0.51-0.91,1.38c-0.65,3.01-1.34,3.68-2.22,3.68c-0.99,0-1.88-1.49-2.1-4.47c-0.18-2.34-0.15-6.66,0.08-10.95
	c0.05-0.88-0.2-1.75-2.56-2.61c-1.02-0.37-2.5-0.91-3.23,0.86c-2.08,5.02-2.89,9.01-3.09,10.63c-0.01,0.08-0.11,0.1-0.13-0.09
	c-0.12-1.3-0.4-3.65-0.43-8.61c-0.01-0.97-0.21-1.79-1.28-2.46c-0.69-0.44-2.79-1.21-3.55-0.29c-0.66,0.75-1.41,2.77-2.2,5.17
	c-0.64,1.95-1.09,3.27-1.09,3.27s0.01-5.26,0.02-7.25c0-0.75-0.51-1-0.67-1.05c-0.7-0.2-2.08-0.54-2.67-0.54
	c-0.72,0-0.9,0.4-0.9,0.99c0,0.08-0.12,6.92-0.12,11.71c0,0.21,0,0.43,0,0.68c-0.4,2.2-1.7,5.19-3.11,5.19
	c-1.41,0-2.08-1.25-2.08-6.96c0-3.33,0.1-4.78,0.15-7.19c0.03-1.39,0.08-2.45,0.08-2.69c-0.01-0.74-1.29-1.12-1.89-1.25
	c-0.6-0.14-1.12-0.19-1.53-0.17c-0.58,0.03-0.98,0.41-0.98,0.93c0,0.28,0,0.81,0,0.81c-0.74-1.17-1.93-1.98-2.73-2.21
	c-2.14-0.63-4.37-0.07-6.05,2.28c-1.34,1.87-2.14,3.99-2.46,7.03c-0.23,2.22-0.16,4.48,0.26,6.39c-0.5,2.15-1.42,3.03-2.43,3.03
	c-1.47,0-2.54-2.4-2.41-6.55c0.08-2.73,0.63-4.64,1.22-7.41c0.26-1.18,0.05-1.8-0.47-2.39c-0.47-0.54-1.49-0.82-2.94-0.48
	c-1.04,0.24-2.52,0.51-3.88,0.71c0,0,0.08-0.33,0.15-0.9c0.35-3.02-2.93-2.78-3.98-1.81c-0.62,0.58-1.05,1.26-1.21,2.48
	c-0.26,1.94,1.33,2.85,1.33,2.85c-0.52,2.38-1.79,5.48-3.1,7.72c-0.7,1.2-1.24,2.09-1.94,3.04c-0.02-3.8,0-7.6,0.07-11.4
	c0.03-1.39,0.08-2.42,0.08-2.67c-0.01-0.54-0.32-0.75-0.98-1.01c-0.58-0.23-1.27-0.39-1.99-0.44c-0.9-0.07-1.44,0.41-1.43,0.97
	c0,0.11,0,0.76,0,0.76c-0.74-1.17-1.93-1.98-2.73-2.21c-2.14-0.63-4.37-0.07-6.05,2.28c-1.34,1.87-2.21,4.49-2.46,7.01
	c-0.23,2.34-0.19,4.33,0.13,6.01c-0.34,1.68-1.32,3.44-2.42,3.44c-1.41,0-2.22-1.25-2.22-6.96c0-3.33,0.1-4.78,0.15-7.19
	c0.03-1.39,0.08-2.45,0.08-2.69c-0.01-0.74-1.29-1.11-1.89-1.25c-0.62-0.14-1.16-0.2-1.58-0.17c-0.55,0.04-0.93,0.53-0.93,0.89v0.84
	c-0.74-1.17-1.93-1.98-2.73-2.21c-2.14-0.63-4.35-0.06-6.05,2.28c-1.1,1.53-2,3.22-2.46,6.97c-0.13,1.08-0.19,2.1-0.18,3.05
	c-0.44,2.69-2.39,5.8-3.98,5.8c-0.93,0-1.82-1.81-1.82-5.66c0-5.13,0.32-12.43,0.37-13.13c0,0,2.01-0.03,2.4-0.04
	c1-0.01,1.91,0.01,3.25-0.06c0.67-0.03,1.32-2.44,0.62-2.74c-0.31-0.13-2.53-0.25-3.41-0.27c-0.74-0.02-2.79-0.17-2.79-0.17
	s0.18-4.85,0.23-5.36c0.04-0.43-0.52-0.65-0.83-0.78c-0.77-0.33-1.46-0.48-2.28-0.65c-1.13-0.23-1.64,0-1.74,0.95
	c-0.15,1.44-0.23,5.68-0.23,5.68c-0.83,0-3.66-0.16-4.48-0.16c-0.77,0-1.6,3.31-0.54,3.35c1.22,0.05,3.36,0.09,4.77,0.13
	c0,0-0.06,7.42-0.06,9.72c0,0.24,0,0.48,0,0.71c-0.78,4.06-3.52,6.25-3.52,6.25c0.59-2.68-0.61-4.7-2.78-6.4
	c-0.8-0.63-2.37-1.82-4.14-3.12c0,0,1.02-1.01,1.93-3.03c0.64-1.43,0.67-3.07-0.91-3.44c-2.6-0.6-4.75,1.31-5.39,3.35
	c-0.5,1.58-0.23,2.75,0.74,3.97c0.07,0.09,0.15,0.18,0.23,0.27c-0.59,1.13-1.39,2.66-2.08,3.84c-1.9,3.28-3.33,5.88-4.41,5.88
	c-0.87,0-0.85-2.63-0.85-5.1c0-2.13,0.16-5.32,0.28-8.63c0.04-1.09-0.51-1.72-1.42-2.28c-0.56-0.34-1.75-1.02-2.44-1.02
	c-1.03,0-4.01,0.14-6.82,8.27c-0.35,1.03-1.05,2.89-1.05,2.89l0.06-9.78c0-0.23-0.12-0.45-0.4-0.6c-0.47-0.26-1.74-0.78-2.86-0.78
	c-0.54,0-0.8,0.25-0.8,0.75l-0.1,15.3c0,1.16,0.03,2.52,0.15,3.11c0.11,0.59,0.3,1.08,0.53,1.36c0.23,0.29,0.5,0.51,0.93,0.6
	c0.41,0.08,2.64,0.37,2.75-0.48c0.14-1.02,0.14-2.13,1.32-6.25c1.82-6.42,4.2-9.55,5.32-10.66c0.2-0.19,0.42-0.21,0.41,0.11
	c-0.05,1.41-0.22,4.92-0.33,7.91c-0.3,7.99,1.15,9.47,3.23,9.47c1.59,0,3.83-1.58,6.23-5.58c1.34-2.23,2.67-4.46,4-6.69
	c0.73,0.67,1.54,1.4,2.36,2.17c1.9,1.8,2.52,3.51,2.11,5.13c-0.32,1.24-1.51,2.52-3.62,1.28c-0.62-0.36-0.88-0.64-1.5-1.05
	c-0.33-0.22-0.84-0.29-1.15-0.05c-0.79,0.6-1.25,1.36-1.51,2.3c-0.25,0.92,0.67,1.4,1.62,1.82c0.82,0.36,2.58,0.69,3.7,0.73
	c4.37,0.15,7.88-2.11,10.32-7.94c0.44,5.03,2.29,7.88,5.52,7.88c2.16,0,4.32-2.79,5.27-5.54c0.27,1.12,0.67,2.09,1.19,2.91
	c2.49,3.94,7.31,3.09,9.74-0.25c0.75-1.03,0.86-1.41,0.86-1.41c0.35,3.16,2.9,4.26,4.36,4.26c1.63,0,3.32-0.77,4.5-3.43
	c0.14,0.29,0.29,0.56,0.45,0.83c2.49,3.94,7.31,3.09,9.74-0.25c0.11-0.16,0.21-0.3,0.3-0.43l0.07,2.08l-2.23,2.05
	c-3.74,3.43-6.58,6.03-6.79,9.06c-0.27,3.86,2.86,5.3,5.24,5.49c2.51,0.2,4.67-1.19,5.99-3.14c1.17-1.71,1.93-5.4,1.87-9.04
	c-0.02-1.46-0.06-3.31-0.09-5.3c1.31-1.53,2.79-3.45,4.16-5.71c1.48-2.46,3.08-5.76,3.89-8.33c0,0,1.38,0.01,2.86-0.08
	c0.47-0.03,0.61,0.07,0.52,0.41c-0.11,0.42-1.86,7.2-0.26,11.72c1.1,3.09,3.58,4.09,5.04,4.09c1.72,0,3.36-1.3,4.24-3.23
	c0.11,0.21,0.22,0.42,0.34,0.61c2.49,3.94,7.3,3.09,9.74-0.25c0.55-0.75,0.86-1.41,0.86-1.41c0.52,3.27,3.07,4.28,4.53,4.28
	c1.52,0,2.96-0.62,4.13-3.39c0.05,1.22,0.13,2.21,0.25,2.53c0.07,0.19,0.51,0.43,0.82,0.55c1.39,0.51,2.8,0.27,3.33,0.17
	c0.36-0.07,0.65-0.36,0.68-1.12c0.1-1.97,0.04-5.29,0.64-7.76c1-4.14,1.94-5.74,2.39-6.54c0.25-0.45,0.53-0.52,0.54-0.05
	c0.02,0.95,0.07,3.75,0.46,7.51c0.29,2.77,0.67,4.4,0.96,4.92c0.84,1.48,1.87,1.55,2.71,1.55c0.54,0,1.66-0.15,1.56-1.09
	c-0.05-0.46,0.04-3.3,1.03-7.37c0.65-2.66,1.72-5.07,2.11-5.95c0.14-0.32,0.21-0.07,0.21-0.02c-0.08,1.83-0.27,7.83,0.48,11.11
	c1.01,4.44,3.94,4.94,4.96,4.94c2.18,0,3.96-1.66,4.56-6.02C167.89,25.15,167.68,24.34,167.04,24.34z"/>
<text transform="matrix(1 0 0 1 382 16)" style="font-family:'MyriadPro-Regular'; font-size:12px;">Lorem ipsum</text>
</svg>
